<svg xmlns="http://www.w3.org/2000/svg" width="418.96" height="132.31" viewBox="0 0 418.96 132.31">
  <g id="Layer_x0020_1" transform="translate(-1380.329 -11972.793)">
    <g id="_2990118119344" transform="translate(1380.329 11972.793)">
      <path id="Path_5" data-name="Path 5" d="M1380.738,12038.693q-.192-27.135-.377-54.268c-.008-1.15-.068-2.307,0-3.453.3-4.949,3.2-8.119,7.438-8.178,4.451-.062,7.787,3.25,7.864,8.266.19,12.332.174,24.666.316,37,.049,4.209,3.112,6.48,6.754,4.639a6.571,6.571,0,0,0,2.854-4.848c.255-7.883-.023-15.783.014-23.676.028-5.873,2.73-9.221,7.241-9.291,4.653-.072,7.618,3.52,7.669,9.438q.2,23.681.315,47.361c.011,2.707.42,4.9,3.612,5.473,3.982.721,6.254-1.035,6.252-5.248q-.01-17.268-.211-34.535c-.04-3.736,1.512-6.984,5-7.5,2.627-.387,5.867.982,8.266,2.479,1.194.744,1.443,3.518,1.54,5.4.235,4.594.2,9.205.143,13.811-.041,3.23,1.827,4.438,4.621,4.5,2.873.063,5.025-.771,5.358-4.328.558-5.973,3.42-8.754,8.058-8.4,4.371.338,6.77,3.426,6.846,9.162q.209,15.785.225,31.574c0,6-2.537,9.174-7.168,9.3-4.841.131-7.656-3.2-7.772-9.234-.053-2.795-.116-5.592-.063-8.385.065-3.451-2.111-4.8-4.988-4.783-2.847.018-5,1.291-4.942,4.795.133,7.564.138,15.129.152,22.693.011,5.924-2.429,9.254-6.933,9.584-4.32.316-7.576-3.043-7.844-8.691-.173-3.627-1.911-5.068-5.238-4.99-3.484.082-4.872,1.971-4.737,5.443.19,4.928.192,9.865.1,14.8-.088,4.652-2.913,7.547-7.211,7.7-4.408.152-7.286-2.455-7.591-7.232-.241-3.77-.213-7.562-.176-11.344.034-3.543-2.259-4.646-5.107-4.607-2.921.039-4.839,1.354-4.724,4.895.236,7.229.186,14.469.19,21.705,0,5.785-3.059,9.41-7.8,9.387-4.49-.025-7.454-3.465-7.513-9.184C1380.963,12076.846,1380.873,12057.77,1380.738,12038.693Z" transform="translate(-1380.329 -11972.794)" fill="#fff"/>
      <path id="Path_6" data-name="Path 6" d="M5736.322,14527.718a7.424,7.424,0,1,1,.39,14.835,7.422,7.422,0,1,1-.39-14.835Z" transform="translate(-5628.973 -14468.983)" fill="#fff"/>
    </g>
    <path id="Path_7" data-name="Path 7" d="M7202.4,13399.946h-9.752l-11.715-19.6a42.6,42.6,0,0,0-3.111-4.659,17.811,17.811,0,0,0-3.1-3.129,10.664,10.664,0,0,0-3.412-1.781,13.774,13.774,0,0,0-4.126-.564h-6.724v29.736h-8.187v-69.907h20.868a29.7,29.7,0,0,1,8.454,1.147,18.847,18.847,0,0,1,6.723,3.479,16.088,16.088,0,0,1,4.46,5.824,19.2,19.2,0,0,1,1.614,8.17,19.7,19.7,0,0,1-1.1,6.706,17.345,17.345,0,0,1-3.112,5.426,18.747,18.747,0,0,1-4.875,4.076,25.276,25.276,0,0,1-6.423,2.614v.182a15.349,15.349,0,0,1,3.062,1.78,17.329,17.329,0,0,1,2.446,2.38,28.914,28.914,0,0,1,2.33,3.1c.765,1.148,1.614,2.479,2.546,4.011Zm-41.936-62.5v25.361h11.117a16.83,16.83,0,0,0,5.674-.933,12.85,12.85,0,0,0,4.51-2.662,11.978,11.978,0,0,0,2.979-4.244,14.121,14.121,0,0,0,1.065-5.623c0-3.745-1.2-6.657-3.628-8.754-2.413-2.1-5.924-3.146-10.5-3.146Z" transform="translate(-5639.263 -1326.046)" fill="#fff"/>
    <path id="_1" data-name="1" d="M9787.362,13399.946H9750.32v-69.907h35.5v7.4h-27.308v23.264h25.26v7.355h-25.26v24.479h28.854Z" transform="translate(-8177.581 -1326.046)" fill="#fff"/>
    <path id="_2" data-name="2" d="M11984.363,13399.946h-37.043v-69.907h35.5v7.4h-27.308v23.264h25.261v7.355h-25.261v24.479h28.855Z" transform="translate(-10324.076 -1326.046)" fill="#fff"/>
    <path id="_3" data-name="3" d="M14180.6,13399.946h-36.261v-69.907h8.187v62.5h28.074Z" transform="translate(-12470.592 -1326.046)" fill="#fff"/>
    <path id="_4" data-name="4" d="M16196.828,13399.946h-8.188v-69.907h8.188Z" transform="translate(-14467.896 -1326.046)" fill="#fff"/>
    <path id="_5" data-name="5" d="M17044.457,13330l-25.893,69.908h-9.02L16984.2,13330h9.121l19.352,55.431a33.544,33.544,0,0,1,1.414,6.189h.184a30.637,30.637,0,0,1,1.615-6.289l19.752-55.331Z" transform="translate(-15245.168 -1326.007)" fill="#fff"/>
  </g>
</svg>
