<svg id="_2990118119344" xmlns="http://www.w3.org/2000/svg" width="42.659" height="48.986" viewBox="0 0 42.659 48.986">
  <path id="Path_11531" data-name="Path 11531" d="M1380.48,11997.191q-.071-10.046-.139-20.092c0-.427-.025-.854,0-1.279.112-1.832,1.186-3.006,2.754-3.027a2.869,2.869,0,0,1,2.912,3.061c.07,4.565.064,9.133.117,13.7.018,1.559,1.152,2.4,2.5,1.717a2.433,2.433,0,0,0,1.057-1.795c.094-2.918-.009-5.843.005-8.766.01-2.174,1.01-3.414,2.681-3.439,1.723-.027,2.821,1.3,2.839,3.494q.075,8.766.117,17.535c0,1,.156,1.813,1.337,2.025,1.474.268,2.316-.383,2.315-1.943q0-6.393-.078-12.785c-.015-1.385.56-2.586,1.85-2.776a5.036,5.036,0,0,1,3.061.917c.442.276.534,1.3.57,2,.087,1.7.075,3.408.053,5.112-.015,1.2.676,1.644,1.711,1.666,1.064.022,1.861-.286,1.984-1.6.207-2.212,1.266-3.241,2.984-3.108,1.618.125,2.506,1.269,2.535,3.392q.077,5.845.083,11.689c0,2.222-.939,3.4-2.654,3.443-1.792.049-2.835-1.184-2.877-3.418-.02-1.035-.043-2.07-.024-3.105a1.613,1.613,0,0,0-1.847-1.771c-1.054.007-1.853.479-1.83,1.776.049,2.8.051,5.6.057,8.4,0,2.193-.9,3.427-2.567,3.549-1.6.117-2.8-1.127-2.9-3.219-.064-1.342-.708-1.876-1.939-1.847-1.29.03-1.8.729-1.754,2.015.071,1.824.071,3.654.036,5.479a2.657,2.657,0,0,1-2.67,2.849,2.563,2.563,0,0,1-2.811-2.678c-.089-1.4-.079-2.8-.065-4.2.013-1.312-.837-1.721-1.891-1.707a1.557,1.557,0,0,0-1.749,1.813c.087,2.677.069,5.357.07,8.036,0,2.142-1.133,3.485-2.89,3.476-1.663-.01-2.76-1.283-2.782-3.4C1380.564,12011.316,1380.531,12004.254,1380.48,11997.191Z" transform="translate(-1380.329 -11972.793)" fill="#fff"/>
  <path id="Path_11532" data-name="Path 11532" d="M5731.673,14527.719a2.749,2.749,0,1,1,.145,5.492,2.748,2.748,0,1,1-.145-5.492Z" transform="translate(-5691.928 -14505.973)" fill="#fff"/>
</svg>
